<svg id="Layer_1" data-name="Layer 1" xmlns="http://www.w3.org/2000/svg" viewBox="0 0 283.5 283.5"><defs><style>.cls-1{fill:#fff;}</style></defs><title>Kingston_University_Logo</title><rect width="283.5" height="283.5"/><polygon class="cls-1" points="12.8 14.7 21 14.7 21 30.1 35.5 14.7 45.7 14.7 31.2 29.4 47.1 51.9 36.8 51.9 25.7 35.2 21 39.9 21 51.9 12.8 51.9 12.8 14.7"/><path class="cls-1" d="M49.8,25h7.4V51.9H49.8Zm7.4-4.2H49.8V14.7h7.4Z"/><path class="cls-1" d="M63,25h7v3.7h.2a9.69,9.69,0,0,1,8.2-4.5c7.9,0,9.8,4.4,9.8,11.1V51.8H80.8V36.6c0-4.4-1.3-6.6-4.7-6.6-4,0-5.7,2.2-5.7,7.7V51.8H63V25Z"/><path class="cls-1" d="M112.7,38.1c0-4.4-1.5-8.3-6.3-8.3-4.2,0-6,3.6-6,7.7,0,3.9,1.5,8.1,6,8.1,4.2-.1,6.3-3.7,6.3-7.5m7,12c0,4.4-1.6,11.9-13.9,11.9-5.3,0-11.5-2.5-11.9-8.6h7.3c.7,2.8,2.9,3.7,5.5,3.7,4.1,0,6-2.8,5.9-6.7V46.9h-.1a9.1,9.1,0,0,1-8.1,4.2c-8.1,0-11.5-6.1-11.5-13.5,0-7,4-13.3,11.6-13.3,3.5,0,6.2,1.2,8,4.3h.1V25h7V50.1Z"/><path class="cls-1" d="M131.3,43.1c0,3.2,2.8,4.5,5.7,4.5,2.1,0,4.8-.8,4.8-3.4,0-2.2-3.1-3-8.4-4.2-4.3-.9-8.5-2.4-8.5-7.2,0-6.9,5.9-8.6,11.7-8.6s11.3,2,11.9,8.6h-7c-.2-2.9-2.4-3.6-5-3.6-1.7,0-4.1.3-4.1,2.5,0,2.7,4.2,3,8.4,4s8.5,2.5,8.5,7.5c0,7.1-6.1,9.4-12.3,9.4s-12.3-2.3-12.6-9.5Z"/><path class="cls-1" d="M162.9,25h5.4v4.9h-5.4V43.2c0,2.5.6,3.1,3.1,3.1a17.85,17.85,0,0,0,2.3-.2v5.8a29,29,0,0,1-4.3.3c-4.5,0-8.5-1-8.5-6.4V29.9H151V25h4.5V16.9h7.4Z"/><path class="cls-1" d="M184.9,47c5,0,6.6-4.3,6.6-8.6s-1.5-8.6-6.6-8.6-6.5,4.3-6.5,8.6,1.5,8.6,6.5,8.6m0-22.8c8.5,0,13.9,5.6,13.9,14.2s-5.5,14.2-13.9,14.2S171,47,171,38.4s5.5-14.2,13.9-14.2"/><path class="cls-1" d="M202.3,25h7v3.7h.2a9.69,9.69,0,0,1,8.2-4.5c7.9,0,9.8,4.4,9.8,11.1V51.8h-7.4V36.6c0-4.4-1.3-6.6-4.7-6.6-4,0-5.7,2.2-5.7,7.7V51.8h-7.4V25Z"/><path class="cls-1" d="M44.3,89.8c0,10-5.9,14.9-15.9,14.9S12.6,99.9,12.6,89.8V66.7h8.2V89.8c0,4.1,1,8.1,7.6,8.1,5.8,0,7.7-2.5,7.7-8.1V66.7h8.2Z"/><path class="cls-1" d="M50.6,77h7v3.7h.2A9.69,9.69,0,0,1,66,76.2c7.9,0,9.8,4.4,9.8,11.1v16.6H68.4V88.7c0-4.4-1.3-6.6-4.7-6.6-4,0-5.7,2.2-5.7,7.7v14.1H50.6V77Z"/><path class="cls-1" d="M81.6,77H89v26.9H81.6ZM89,72.8H81.6V66.7H89Z"/><polygon class="cls-1" points="109.7 103.9 101.5 103.9 92.3 77 100 77 105.7 95.3 105.8 95.3 111.5 77 118.8 77 109.7 103.9"/><path class="cls-1" d="M140,87.5c-.7-3.7-2.3-5.7-5.9-5.7a5.74,5.74,0,0,0-6.1,5.7Zm-12,4.7c.2,4.7,2.5,6.8,6.6,6.8,3,0,5.4-1.8,5.8-3.5h6.5c-2.1,6.3-6.5,9.1-12.6,9.1-8.5,0-13.7-5.8-13.7-14.2,0-8.1,5.6-14.2,13.7-14.2,9.2,0,13.6,7.7,13.1,16Z"/><path class="cls-1" d="M151.7,77h7v5h.1a9.52,9.52,0,0,1,8.6-5.7,4.53,4.53,0,0,1,1.6.3v6.9a11.15,11.15,0,0,0-2.7-.3c-5.4,0-7.3,3.9-7.3,8.6v12.1h-7.4V77Z"/><path class="cls-1" d="M177.7,95.1c.1,3.2,2.8,4.5,5.7,4.5,2.1,0,4.8-.8,4.8-3.4,0-2.2-3.1-3-8.4-4.2-4.3-.9-8.5-2.4-8.5-7.2,0-6.9,5.9-8.6,11.7-8.6s11.3,2,11.9,8.6h-7c-.2-2.9-2.4-3.6-5-3.6-1.7,0-4.1.3-4.1,2.5,0,2.7,4.2,3,8.4,4s8.5,2.5,8.5,7.5c0,7.1-6.1,9.4-12.3,9.4s-12.3-2.3-12.6-9.5Z"/><path class="cls-1" d="M200.1,77h7.4v26.9h-7.4Zm7.4-4.2h-7.4V66.7h7.4v6.1Z"/><path class="cls-1" d="M222.7,77h5.4v4.9h-5.4V95.2c0,2.5.6,3.1,3.1,3.1a17.85,17.85,0,0,0,2.3-.2v5.8a29,29,0,0,1-4.3.3c-4.5,0-8.5-1-8.5-6.4V81.9h-4.5V77h4.5V68.9h7.4Z"/><path class="cls-1" d="M246.9,107.3c-1.6,4.3-4.2,6.1-9.3,6.1a34,34,0,0,1-4.5-.3V107c1.4.1,2.9.3,4.3.3,2.6-.3,3.4-2.9,2.6-5L230.5,77h7.9l6.1,18.4h.1L250.5,77h7.6Z"/><polygon class="cls-1" points="13 118.7 16.5 118.7 16.5 152.9 37.3 152.9 37.3 155.9 13 155.9 13 118.7"/><path class="cls-1" d="M42.2,142.5c0,5.7,3.1,11.4,9.4,11.4s9.4-5.7,9.4-11.4-3.1-11.4-9.4-11.4-9.4,5.6-9.4,11.4m22.1,0c0,7.7-4.5,14.2-12.7,14.2s-12.7-6.5-12.7-14.2,4.5-14.2,12.7-14.2,12.7,6.5,12.7,14.2"/><path class="cls-1" d="M69.1,129h3.3v4.6h.1c1.2-3.2,4.8-5.4,8.6-5.4,7.5,0,9.8,4,9.8,10.4v17.3H87.6V139.1c0-4.6-1.5-8.1-6.8-8.1s-8.3,4-8.4,9.2v15.7H69.1V129Z"/><path class="cls-1" d="M108,153.9c7,0,9.4-5.9,9.4-11.5S115,131,108,131c-6.2,0-8.8,5.9-8.8,11.4s2.6,11.5,8.8,11.5m12.7,2h-3v-5.1h-.1c-1.4,3.5-5.7,5.9-9.6,5.9-8.2,0-12.1-6.6-12.1-14.2s3.9-14.2,12.1-14.2c4,0,7.9,2,9.3,5.9h.1V118.7h3.3Z"/><path class="cls-1" d="M128.9,142.5c0,5.7,3.1,11.4,9.4,11.4s9.4-5.7,9.4-11.4-3.1-11.4-9.4-11.4-9.4,5.6-9.4,11.4m22.1,0c0,7.7-4.5,14.2-12.7,14.2s-12.7-6.5-12.7-14.2,4.5-14.2,12.7-14.2,12.7,6.5,12.7,14.2"/><path class="cls-1" d="M155.8,129h3.3v4.6h.1c1.2-3.2,4.8-5.4,8.6-5.4,7.5,0,9.8,4,9.8,10.4v17.3h-3.3V139.1c0-4.6-1.5-8.1-6.8-8.1s-8.3,4-8.4,9.2v15.7h-3.3V129Z"/></svg>